<svg xmlns="http://www.w3.org/2000/svg" enable-background="new 0 0 800 600" viewBox="0 0 800 600"><path fill="#fff" d="M690.59,464.13h80.29c4.36-2.25,7.35-6.82,7.35-12.09c0-6.82-5.01-12.47-11.53-13.44
	c0.01-0.22,0.02-0.44,0.02-0.67c0-7.98-6.6-14.45-14.74-14.45c-0.85,0-1.68,0.07-2.5,0.21c-3.51-6.09-10.36-10.22-18.23-10.22
	c-9.17,0-16.95,5.61-19.68,13.39c-0.86-0.17-1.75-0.27-2.65-0.27c-7.82,0-14.16,6.73-14.16,15.03c0,0.93,0.08,1.85,0.23,2.73
	c-5.92,0.38-10.6,4.91-10.6,10.45C684.39,458.87,686.91,462.39,690.59,464.13z" opacity=".1"/><linearGradient id="a" x1="410.635" x2="410.635" y1="-1.336" y2="600.908" gradientUnits="userSpaceOnUse"><stop offset="0" stop-color="#70b"/><stop offset="1" stop-color="#00008b"/><stop offset="1"/></linearGradient><path fill="url(#a)" d="M745.2,339.56C745.2,154.79,595.41,5,410.63,5C225.86,5,76.07,154.79,76.07,339.56
				c0,105.4,48.76,199.4,124.93,260.72h419.27C696.44,538.96,745.2,444.96,745.2,339.56z"/><path fill="#fff" d="M503.67,209.55c0,2.06-0.65,3.72-1.45,3.72h-82.25c-0.8,0-1.45-1.67-1.45-3.72l0,0c0-2.06,0.65-3.72,1.45-3.72
		h82.25C503.02,205.83,503.67,207.5,503.67,209.55L503.67,209.55z" opacity=".4"/><defs><filter id="b" width="422" height="307" x="200" y="294" filterUnits="userSpaceOnUse"><feColorMatrix values="1 0 0 0 0  0 1 0 0 0  0 0 1 0 0  0 0 0 1 0"/></filter></defs><path fill="#fff" d="M667.1 175.99c0 2.06-1.9 3.72-4.24 3.72h-240.1c-2.34 0-4.24-1.67-4.24-3.72l0 0c0-2.06 1.9-3.72 4.24-3.72h240.1C665.2 172.27 667.1 173.94 667.1 175.99L667.1 175.99zM583.11 191.81c0 2.06-1.26 3.72-2.81 3.72H421.32c-1.55 0-2.81-1.67-2.81-3.72l0 0c0-2.06 1.26-3.72 2.81-3.72H580.3C581.85 188.09 583.11 189.75 583.11 191.81L583.11 191.81z" opacity=".4"/><polygon fill="#fff" fill-rule="evenodd" points="300.72 582.47 300.72 581.61 355.79 581.61" clip-rule="evenodd"/><polygon fill="#fff" fill-rule="evenodd" points="283.53 582.47 236.15 581.61 283.53 581.61" clip-rule="evenodd"/><linearGradient id="d" x1="641.158" x2="644.282" y1="489.084" y2="489.084" gradientUnits="userSpaceOnUse"><stop offset=".041" stop-color="#100060"/><stop offset="1" stop-color="#090e96"/></linearGradient><path fill="url(#d)" d="M643.13,507.56c0,0-2.16-13.67-1.95-16.61c0.21-2.94,1.02-18.47,1.02-18.47l2.09-1.86c0,0-2.06,17.3-1.8,22.41
	C642.74,498.13,643.13,507.56,643.13,507.56z"/><rect width="11.58" height="228.24" x="554.68" y="371.79" fill="#1289cc" fill-rule="evenodd" clip-rule="evenodd"/><rect width="11.58" height="228.24" x="548.99" y="371.79" fill-rule="evenodd" clip-rule="evenodd"/><rect width="11.53" height="228.24" x="592.05" y="371.79" fill="#1289cc" fill-rule="evenodd" clip-rule="evenodd"/><rect width="11.53" height="228.24" x="586.36" y="371.79" fill-rule="evenodd" clip-rule="evenodd"/><rect width="11.58" height="228.24" x="309.53" y="371.79" fill="#125cae" fill-rule="evenodd" clip-rule="evenodd"/><rect width="11.58" height="228.24" x="303.85" y="371.79" fill-rule="evenodd" clip-rule="evenodd"/><rect width="11.53" height="228.24" x="346.9" y="371.79" fill="#1289cc" fill-rule="evenodd" clip-rule="evenodd"/><rect width="11.53" height="228.24" x="341.22" y="371.79" fill-rule="evenodd" clip-rule="evenodd"/><rect width="364.45" height="22.61" x="261.49" y="362.32" fill-rule="evenodd" clip-rule="evenodd"/><linearGradient id="e" x1="407.438" x2="538.178" y1="318.561" y2="318.561" gradientUnits="userSpaceOnUse"><stop offset="0" stop-color="#a1baff"/><stop offset=".433" stop-color="#fff"/></linearGradient><polygon fill="url(#e)" fill-rule="evenodd" points="424.23 280.97 536.39 273.07 538.18 277 523.47 357.25 518.3 357.25 407.44 364.05" clip-rule="evenodd"/><polygon fill-rule="evenodd" points="420.31 273.07 535.99 273.07 519.2 356.2 403.51 356.2" clip-rule="evenodd"/><linearGradient id="f" x1="487.791" x2="519.543" y1="359.186" y2="359.186" gradientUnits="userSpaceOnUse"><stop offset="0" stop-color="#a1baff"/><stop offset=".433" stop-color="#fff"/></linearGradient><rect width="31.75" height="6.26" x="487.79" y="356.05" fill="url(#f)" fill-rule="evenodd" clip-rule="evenodd"/><rect width="106.94" height="6.26" x="380.85" y="356.05" fill="#431ca3" fill-rule="evenodd" clip-rule="evenodd"/><polygon fill="#3f2759" fill-rule="evenodd" points="424.23 277.89 409.37 351.33 515.22 351.33 530.08 277.89" clip-rule="evenodd"/><path fill="#fff" fill-rule="evenodd" d="M443.71 362.32c3.58.44 11.13-.7 16.5-4.17 5.32-3.48 9.54-6.78 9.54-6.78s11.59 1.51 12.33-1.14c.32-3.54-15.02-7.73-17.15-7.98-2.19-.25-20.17 2.28-22.01 4.12C441.08 348.2 443.71 362.32 443.71 362.32zM383.78 352.23c3.58.45 11.13-.69 16.45-4.17 5.32-3.48 10.39-8.55 10.39-8.55s11.58 1.09 11.33 0c-.3-1.04-14.81-7.11-17-7.35-2.14-.25-20.17 2.29-22.01 4.13C381.1 338.11 383.78 352.23 383.78 352.23z" clip-rule="evenodd"/><path fill="#fff" fill-rule="evenodd" d="M404.8,338.22c1.14,1.44,8.4,6.86,7.01,8.94c-1.39,2.14-4.72,3.03-8.35,0.4c-3.63-2.63-5.91-5.72-4.92-6.76
		C399.54,339.76,404.8,338.22,404.8,338.22z" clip-rule="evenodd"/><linearGradient id="g" x1="242.597" x2="394.824" y1="314.881" y2="314.881" gradientUnits="userSpaceOnUse"><stop offset="0" stop-color="#311341"/><stop offset=".23" stop-color="#3113c2"/><stop offset=".348" stop-color="#2f18c5"/><stop offset=".493" stop-color="#2927cc"/><stop offset=".652" stop-color="#1f40d8"/><stop offset=".822" stop-color="#1263e9"/><stop offset=".998" stop-color="#008fff"/><stop offset="1" stop-color="#0090ff"/></linearGradient><path fill="url(#g)" fill-rule="evenodd" d="M250.31,266.61c-11.03,4.47-8.4,25.74-3.38,41c4.97,15.26,56.5,51.28,71.76,55.26
		c15.26,3.93,74.44-14.56,74.44-14.56c4.02-8.2,0.55-16.9-6.76-15.01c0,0-57.69,9.04-66.34-0.94
		C313.07,324.35,261.99,261.89,250.31,266.61z" clip-rule="evenodd"/><linearGradient id="h" x1="260.194" x2="287.175" y1="196.16" y2="267.796" gradientUnits="userSpaceOnUse"><stop offset="0" stop-color="#a1baff"/><stop offset=".433" stop-color="#fff"/></linearGradient><path fill="url(#h)" fill-rule="evenodd" d="M297.02,238.98c-18.04,36.32-55.11,24.2-63.85-10.53c-8.75-34.69-11.03-64.65,19.38-69.92
		C285.59,152.81,315.11,202.65,297.02,238.98z" clip-rule="evenodd"/><path fill="#fff" fill-rule="evenodd" d="M240.57,239.78c3.43,10.78,2.38,39.7,2.38,39.7s48.8,14.21,47.31,7.65c-5.96-26.59-8.99-49.84-14.46-54.71
		C271.28,228.44,260.15,241.81,240.57,239.78z" clip-rule="evenodd"/><path fill-rule="evenodd" d="M340,567.15c0,0,10.48,12.67,24.05,18.34c13.57,5.67,19.68,8.1,17.49,11.58c-2.19,3.48-19.58,1.84-32.7,2.29
		c-13.07,0.45-21.91,1.44-22.36-2.73c-0.45-4.12,1.64-27.03,1.64-27.03L340,567.15z" clip-rule="evenodd"/><linearGradient id="i" x1="340.829" x2="345.481" y1="474.88" y2="581.868" gradientUnits="userSpaceOnUse"><stop offset=".041" stop-color="#100022"/><stop offset="1" stop-color="#090e96"/></linearGradient><path fill="url(#i)" fill-rule="evenodd" d="M320.92,468.56c0.5,14.21,5.32,120.78,5.32,120.78c3.37,3.89,25.65-4.1,27.21-9.51
		c0,0,9.56-118.63,5.83-119.18C355.61,460.16,320.92,468.56,320.92,468.56z" clip-rule="evenodd"/><path fill-rule="evenodd" d="M454.5,567.65c0,0,10.49,12.67,24,18.39c13.57,5.67,19.68,8.05,17.49,11.58c-2.19,3.48-19.58,1.79-32.65,2.24
		c-13.12,0.45-21.96,1.44-22.41-2.68c-0.45-4.17,1.64-27.08,1.64-27.08L454.5,567.65z" clip-rule="evenodd"/><linearGradient id="j" x1="334.145" x2="458.197" y1="446.239" y2="587.658" gradientUnits="userSpaceOnUse"><stop offset=".041" stop-color="#10003b"/><stop offset="1" stop-color="#090e96"/></linearGradient><path fill="url(#j)" fill-rule="evenodd" d="M248.62,425.67c-1.59,11.08-18.44,28.43,2.09,45.77c20.52,17.34,152.66,2.68,154.35,5.02
		c1.69,2.29,34.39,114.72,34.39,114.72s28.29-0.89,26.81-12.47c-10.92-30.16-9.12-126.45-31.23-136.99
		C412.95,431.19,248.62,425.67,248.62,425.67z" clip-rule="evenodd"/><linearGradient id="k" x1="211.814" x2="337.41" y1="363.16" y2="363.16" gradientUnits="userSpaceOnUse"><stop offset="0" stop-color="#7633ff"/><stop offset=".159" stop-color="#7137ff"/><stop offset=".353" stop-color="#6243ff"/><stop offset=".568" stop-color="#4957ff"/><stop offset=".794" stop-color="#2672ff"/><stop offset="1" stop-color="#0090ff"/></linearGradient><path fill="url(#k)" fill-rule="evenodd" d="M302.78,269.49c-18.93-5.02-75.51-9.07-83.09,7.11c-17.6,37.57-3.59,181.93,20.91,184.31
		c15.75,1.54,93.93-0.85,96.56-29.22C340.6,394.37,306.06,340.4,302.78,269.49z" clip-rule="evenodd"/><rect width="19.18" height="95.21" x="218.18" y="387.29" fill="#fff" fill-rule="evenodd" clip-rule="evenodd"/><rect width="19.18" height="95.21" x="214.1" y="386.52" fill-rule="evenodd" clip-rule="evenodd"/><linearGradient id="l" x1="299.975" x2="445.298" y1="304.053" y2="355.219" gradientUnits="userSpaceOnUse"><stop offset="0" stop-color="#7633ff"/><stop offset=".097" stop-color="#7137ff"/><stop offset=".216" stop-color="#6243ff"/><stop offset=".346" stop-color="#4957ff"/><stop offset=".484" stop-color="#2672ff"/><stop offset=".61" stop-color="#0090ff"/></linearGradient><path fill="url(#l)" fill-rule="evenodd" d="M302.78,269.49c-11.03,4.47-8.45,25.79-3.43,41.05c5.02,15.21,56.55,51.23,71.81,55.21
		c15.26,3.93,76.28-3.77,76.28-3.77c3.98-8.2,0.55-16.9-6.81-15.01c0,0-59.53-1.74-68.18-11.73
		C365.55,327.23,314.41,264.77,302.78,269.49z" clip-rule="evenodd"/><path fill-rule="evenodd" d="M283.6,193.16c-3.53-4.47,6.11,14.21,3.18,22.06c0.05-8.4-20.32-18.54-12.47,4.27
		c0.95,2.78,2.13,14.67,2.13,14.67c-0.2,4.9-25.26,19.7-33.53,14c-7.5-4.37-19.38-21.96-26.98-41.69
		c-7.65-19.73,5.76-29.37,5.76-29.37s-1.84-5.02,4.22-14.46c4.72-7.45,75.09-22.21,71.31,10.28
		C296.42,179.64,289.37,185.46,283.6,193.16z" clip-rule="evenodd"/><path fill="#fff" fill-rule="evenodd" d="M200.88,309.7h72.99c5.28,0,9.64,5.86,9.64,13.02v54.46c0,7.16-4.36,13.02-9.64,13.02h-72.99
		c-5.32,0-9.67-5.86-9.67-13.02v-54.46C191.21,315.56,195.56,309.7,200.88,309.7z" clip-rule="evenodd"/><path fill-rule="evenodd" d="M193.71,309.86h72.99c5.28,0,9.64,5.86,9.64,13.02v54.46c0,7.16-4.36,13.02-9.64,13.02h-72.99
		c-5.32,0-9.67-5.86-9.67-13.02v-54.46C184.03,315.72,188.39,309.86,193.71,309.86z" clip-rule="evenodd"/><rect width="17.19" height="97.05" x="283.53" y="486.65" fill-rule="evenodd" clip-rule="evenodd"/><rect width="124.88" height="6.81" x="230.8" y="581.61" fill-rule="evenodd" clip-rule="evenodd"/><path fill-rule="evenodd" d="M353.05 599.25c5.07 0 9.14-4.08 9.14-9.09 0-5.07-4.07-9.14-9.14-9.14-5.02 0-9.09 4.07-9.09 9.14C343.95 595.18 348.03 599.25 353.05 599.25zM291.02 599.05c5.07 0 9.14-4.08 9.14-9.09 0-5.07-4.08-9.14-9.14-9.14-5.02 0-9.09 4.07-9.09 9.14C281.92 594.97 286 599.05 291.02 599.05zM231.2 599.25c5.02 0 9.14-4.08 9.14-9.09 0-5.07-4.12-9.14-9.14-9.14-5.02 0-9.14 4.07-9.14 9.14C222.06 595.18 226.18 599.25 231.2 599.25zM211.5 471.44h161.2c6.11 0 11.08 4.97 11.08 11.03 0 6.11-4.97 11.08-11.08 11.08H211.5c-6.06 0-11.03-4.97-11.03-11.08C200.47 476.41 205.44 471.44 211.5 471.44z" clip-rule="evenodd"/><path fill="#bcd8fa" fill-rule="evenodd" d="M238.99,266.69c0.25-3.18,2.5-12.13,2.5-12.13s36.57-2.49,45.27,1.59c1.36,0.64,9.81,13.09,9.81,13.09
		C273.51,265.06,253.78,264.86,238.99,266.69z" clip-rule="evenodd"/><polygon fill="#1e8191" fill-rule="evenodd" points="424.23 277.89 530.08 277.89 529.41 281.18 423.53 281.38" clip-rule="evenodd"/><path fill="#1e8191" fill-rule="evenodd" d="M514.68 289.33c0 .5-.4.9-.9.9h-83.69c-.5 0-.9-.4-.9-.9l0 0c0-.5.4-.9.9-.9h83.69C514.28 288.43 514.68 288.83 514.68 289.33L514.68 289.33zM498.24 294.44c0 .5-.33.9-.74.9h-68.61c-.41 0-.74-.4-.74-.9l0 0c0-.5.33-.9.74-.9h68.61C497.91 293.54 498.24 293.95 498.24 294.44L498.24 294.44zM497.22 300.76c0 .5-.33.9-.74.9h-68.61c-.41 0-.74-.4-.74-.9l0 0c0-.5.33-.9.74-.9h68.61C496.89 299.86 497.22 300.26 497.22 300.76L497.22 300.76zM511.27 306.29c0 .5-.4.9-.9.9h-83.78c-.5 0-.9-.4-.9-.9l0 0c0-.5.4-.9.9-.9h83.78C510.87 305.39 511.27 305.8 511.27 306.29L511.27 306.29zM508.17 319.46c0 .5-.4.9-.9.9h-83.78c-.5 0-.9-.4-.9-.9l0 0c0-.5.4-.9.9-.9h83.78C507.76 318.56 508.17 318.96 508.17 319.46L508.17 319.46zM477.84 312.54c0 .5-.25.9-.56.9h-52.15c-.31 0-.56-.4-.56-.9l0 0c0-.5.25-.9.56-.9h52.15C477.59 311.64 477.84 312.04 477.84 312.54L477.84 312.54zM460.41 325.2c0 .5-.18.9-.4.9h-37.65c-.22 0-.4-.4-.4-.9l0 0c0-.5.18-.9.4-.9H460C460.23 324.3 460.41 324.7 460.41 325.2L460.41 325.2zM489.15 332.14c0 .5-.32.9-.72.9h-67.4c-.4 0-.72-.4-.72-.9l0 0c0-.5.33-.9.72-.9h67.4C488.82 331.24 489.15 331.64 489.15 332.14L489.15 332.14z" clip-rule="evenodd"/><g><path fill="#fff" d="M388.94 108.43c0 .73-.59 1.32-1.32 1.32-.73 0-1.32-.59-1.32-1.32 0-.73.59-1.32 1.32-1.32C388.35 107.11 388.94 107.7 388.94 108.43zM483.64 190.28c0 .73-.59 1.32-1.32 1.32s-1.33-.59-1.33-1.32c0-.73.59-1.32 1.33-1.32S483.64 189.54 483.64 190.28zM345.28 119.07c0 .73-.59 1.32-1.32 1.32-.73 0-1.32-.59-1.32-1.32 0-.73.59-1.33 1.32-1.33C344.69 117.75 345.28 118.34 345.28 119.07zM238.68 117.75c0 .73-.59 1.32-1.32 1.32-.73 0-1.32-.59-1.32-1.32 0-.73.59-1.32 1.32-1.32C238.09 116.42 238.68 117.02 238.68 117.75zM614.04 275.26c0 .73-.59 1.32-1.32 1.32s-1.33-.59-1.33-1.32.59-1.32 1.33-1.32S614.04 274.53 614.04 275.26z"/><polygon fill="#fff" points="618.39 187.01 619.8 189.87 622.95 190.32 620.67 192.55 621.21 195.69 618.39 194.21 615.57 195.69 616.1 192.55 613.82 190.32 616.98 189.87"/><polygon fill="#fff" points="291.7 70.98 293.46 74.55 297.4 75.12 294.55 77.9 295.22 81.83 291.7 79.97 288.17 81.83 288.84 77.9 285.99 75.12 289.93 74.55"/><polygon fill="#fff" points="686.65 245.8 688.42 249.37 692.36 249.94 689.51 252.72 690.18 256.65 686.65 254.79 683.13 256.65 683.8 252.72 680.95 249.94 684.89 249.37"/><circle cx="166.58" cy="235.19" r="4.67" fill="#fff"/><defs><filter id="m" width="92.89" height="92.89" x="507.42" y="56.82" filterUnits="userSpaceOnUse"><feFlood flood-color="#fff" flood-opacity="1" result="back"/><feBlend in="SourceGraphic" in2="back"/></filter></defs><mask id="o" width="92.89" height="92.89" x="507.42" y="56.82" maskUnits="userSpaceOnUse"><g filter="url(#m)"><defs><filter id="n" width="92.89" height="92.89" x="507.42" y="56.82" filterUnits="userSpaceOnUse"><feFlood flood-color="#fff" flood-opacity="1" result="back"/><feBlend in="SourceGraphic" in2="back"/></filter></defs><linearGradient id="p" x1="212.569" x2="289.79" y1="309.947" y2="361.592" gradientTransform="scale(-1 1) rotate(44.854 128.14 -754.315)" gradientUnits="userSpaceOnUse"><stop offset="0" stop-color="#4d4d4d"/><stop offset=".293" stop-color="#898989"/><stop offset=".628" stop-color="#c8c8c8"/><stop offset=".873" stop-color="#f0f0f0"/><stop offset="1" stop-color="#fff"/></linearGradient><path fill="url(#p)" d="M520.94,136.02c18.1,18.18,47.5,18.26,65.69,0.17c18.18-18.09,18.26-47.5,0.17-65.68
				c-18.09-18.18-47.5-18.26-65.68-0.17C502.93,88.43,502.85,117.84,520.94,136.02z" mask="url(#o)"/></g></mask><path fill="#fff" d="M520.94,136.02c18.1,18.18,47.5,18.26,65.69,0.17c18.18-18.09,18.26-47.5,0.17-65.68
		c-18.09-18.18-47.5-18.26-65.68-0.17C502.93,88.43,502.85,117.84,520.94,136.02z"/></g><linearGradient id="q" x1="112.784" x2="627.311" y1="214.635" y2="314.649" gradientUnits="userSpaceOnUse"><stop offset=".004" stop-color="#7633ff" stop-opacity="0"/><stop offset=".092" stop-color="#7051ff" stop-opacity=".088"/><stop offset=".263" stop-color="#6685ff" stop-opacity=".26"/><stop offset=".43" stop-color="#5eb1ff" stop-opacity=".428"/><stop offset=".591" stop-color="#57d3ff" stop-opacity=".589"/><stop offset=".743" stop-color="#53ebff" stop-opacity=".742"/><stop offset=".883" stop-color="#50faff" stop-opacity=".883"/><stop offset="1" stop-color="#4fffff"/></linearGradient><polyline fill="url(#q)" points="83.42 354.06 409.37 351.33 416.59 351.6 515.22 351.33 515.22 351.33 515.22 351.33 515.22 351.33 515.22 351.33 530.08 277.89 530.08 277.89 133.49 73.52"/><linearGradient id="r" x1="421.948" x2="421.948" y1="339.506" y2="339.506" gradientUnits="userSpaceOnUse"><stop offset=".004" stop-color="#7633ff" stop-opacity="0"/><stop offset=".092" stop-color="#7051ff" stop-opacity=".088"/><stop offset=".263" stop-color="#6685ff" stop-opacity=".26"/><stop offset=".43" stop-color="#5eb1ff" stop-opacity=".428"/><stop offset=".591" stop-color="#57d3ff" stop-opacity=".589"/><stop offset=".743" stop-color="#53ebff" stop-opacity=".742"/><stop offset=".883" stop-color="#50faff" stop-opacity=".883"/><stop offset="1" stop-color="#4fffff"/></linearGradient><path fill="url(#r)" d="M421.95,339.51"/><linearGradient id="s" x1="393.064" x2="519.623" y1="120.397" y2="120.397" gradientUnits="userSpaceOnUse"><stop offset="0" stop-color="#a1baff"/><stop offset=".089" stop-color="#acc2ff"/><stop offset=".499" stop-color="#d9e3ff"/><stop offset=".816" stop-color="#f5f7ff"/><stop offset="1" stop-color="#fff"/></linearGradient><path fill="url(#s)" d="M499.63,115.95c-3.73,0-7.22,1.02-10.2,2.8c-0.71-10.4-9.37-18.61-19.94-18.61c-2.58,0-5.04,0.49-7.3,1.38
	c-2.88-9.64-11.81-16.67-22.39-16.67c-12.9,0-23.37,10.46-23.37,23.37c0,0.33,0.01,0.66,0.03,0.98c-0.01,0-0.02,0-0.03,0
	c-12.9,0-23.37,10.46-23.37,23.37c0,12.9,10.46,23.37,23.37,23.37c0.81,0,1.6-0.04,2.39-0.12h78.63c0.72,0.08,1.44,0.12,2.18,0.12
	c11.04,0,19.99-8.95,19.99-19.99C519.62,124.9,510.67,115.95,499.63,115.95z" opacity=".2"/></svg>